<?xml version="1.0" standalone="no"?>
<!DOCTYPE svg PUBLIC "-//W3C//DTD SVG 20010904//EN"
 "http://www.w3.org/TR/2001/REC-SVG-20010904/DTD/svg10.dtd">
<svg version="1.0" xmlns="http://www.w3.org/2000/svg"
 width="322.000000pt" height="322.000000pt" viewBox="0 0 322.000000 322.000000"
 preserveAspectRatio="xMidYMid meet">
<metadata>
Created by potrace 1.14, written by Peter Selinger 2001-2017
</metadata>
<g transform="translate(0.000000,322.000000) scale(0.100000,-0.100000)"
fill="#000000" stroke="none">
<path d="M1469 3006 c-2 -2 -30 -6 -61 -10 -259 -27 -554 -147 -773 -315 -79
-60 -240 -221 -297 -296 -363 -481 -434 -1111 -186 -1647 45 -96 71 -118 121
-99 53 20 52 50 -2 179 -156 371 -165 753 -26 1114 120 310 327 551 640 745
103 64 317 142 465 169 102 19 346 25 455 11 461 -58 901 -372 1109 -791 206
-415 214 -854 24 -1276 -37 -81 -38 -88 -28 -115 24 -64 102 -53 138 19 145
290 198 637 146 956 -20 118 -21 126 -44 204 -73 256 -207 481 -400 677 -252
255 -537 400 -910 464 -42 7 -364 17 -371 11z"/>
<path d="M1554 1341 c-46 -20 -80 -104 -75 -187 1 -25 -8 -40 -56 -85 -115
-110 -310 -242 -389 -264 -80 -22 -115 -50 -116 -93 -1 -47 29 -74 89 -79 45
-5 49 -7 51 -32 2 -32 15 -30 -165 -31 -176 -2 -196 -11 -243 -107 -13 -25
-28 -41 -38 -41 -25 1 -166 -13 -174 -18 -4 -3 -68 -7 -143 -10 -144 -6 -203
-20 -242 -56 -29 -27 -30 -71 -1 -98 26 -24 58 -26 97 -6 18 10 72 17 152 20
68 2 153 9 189 15 36 6 97 11 135 12 113 3 128 12 141 86 11 57 13 58 146 60
179 2 246 15 281 53 31 34 36 81 13 125 -8 15 -12 39 -9 54 3 14 6 35 7 46 1
13 26 37 69 67 167 116 262 196 313 264 l27 35 17 -28 c27 -44 138 -142 267
-234 94 -67 118 -89 119 -109 1 -14 3 -36 6 -49 3 -14 -1 -36 -9 -50 -20 -40
-16 -86 12 -119 32 -39 112 -54 281 -55 147 -1 144 1 153 -104 1 -7 11 -18 23
-24 22 -12 31 -13 187 -23 52 -4 98 -9 102 -12 5 -3 68 -7 141 -10 86 -4 141
-10 159 -20 39 -20 71 -18 97 6 32 30 29 73 -7 103 -39 32 -102 47 -226 51
-87 4 -186 13 -235 22 -8 1 -36 3 -62 3 -45 1 -47 3 -67 45 -46 94 -71 104
-259 105 -73 0 -137 3 -142 6 -5 3 -8 16 -6 28 2 18 12 23 53 30 59 9 84 32
85 76 1 45 -26 69 -106 93 -86 26 -218 111 -366 238 -84 71 -88 77 -88 126 0
58 -19 119 -45 150 -18 21 -34 27 -73 30 -27 2 -59 0 -70 -5z"/>
</g>
</svg>
