<?xml version="1.0" standalone="no"?>
<!DOCTYPE svg PUBLIC "-//W3C//DTD SVG 20010904//EN"
 "http://www.w3.org/TR/2001/REC-SVG-20010904/DTD/svg10.dtd">
<svg version="1.0" xmlns="http://www.w3.org/2000/svg"
 width="500.000000pt" height="500.000000pt" viewBox="0 0 500.000000 500.000000"
 preserveAspectRatio="xMidYMid meet">
<metadata>
Created by potrace 1.14, written by Peter Selinger 2001-2017
</metadata>
<g transform="translate(0.000000,500.000000) scale(0.100000,-0.100000)"
fill="#000000" stroke="none">
<path d="M2438 2394 c-39 -20 -60 -67 -66 -144 -3 -36 -10 -73 -17 -82 -20
-29 -165 -146 -270 -217 -69 -47 -122 -75 -172 -90 -77 -23 -103 -46 -103 -92
0 -44 29 -69 88 -76 49 -5 52 -7 52 -34 l0 -29 -77 -2 c-43 -1 -108 -1 -144 1
-41 2 -79 -3 -101 -12 -37 -16 -79 -63 -97 -110 -9 -23 -16 -27 -53 -27 -24 0
-90 -7 -148 -15 -58 -8 -142 -15 -187 -15 -172 0 -275 -77 -200 -148 27 -25
57 -28 95 -8 16 8 95 18 192 26 299 21 375 28 392 35 16 7 34 41 30 58 -1 4 4
22 12 41 l14 33 163 5 c176 5 223 16 253 59 20 29 20 66 1 112 -12 29 -12 44
-2 86 6 28 17 53 24 55 36 14 229 163 300 232 l84 82 72 -73 c71 -70 127 -115
258 -205 59 -40 66 -49 77 -93 9 -40 9 -55 -3 -84 -19 -46 -19 -83 1 -112 30
-42 77 -53 254 -60 l164 -6 12 -35 c7 -19 15 -47 18 -62 9 -40 -2 -38 416 -68
85 -6 172 -18 193 -26 20 -8 45 -14 55 -14 28 0 62 38 62 69 0 61 -90 101
-228 101 -48 0 -132 7 -187 15 -55 8 -119 15 -143 15 -37 0 -44 3 -53 27 -18
47 -60 94 -97 110 -23 10 -61 14 -106 12 -39 -2 -104 -2 -143 -1 l-73 2 0 30
c0 26 3 30 29 30 41 0 90 19 101 40 32 59 -7 109 -103 135 -73 20 -256 142
-374 250 -72 66 -73 67 -74 118 0 29 -6 70 -13 92 -21 72 -110 107 -178 69z"/>
</g>
</svg>
