<?xml version="1.0" standalone="no"?>
<!DOCTYPE svg PUBLIC "-//W3C//DTD SVG 20010904//EN"
 "http://www.w3.org/TR/2001/REC-SVG-20010904/DTD/svg10.dtd">
<svg version="1.0" xmlns="http://www.w3.org/2000/svg"
 width="500.000000pt" height="500.000000pt" viewBox="0 0 500.000000 500.000000"
 preserveAspectRatio="xMidYMid meet">
<metadata>
Created by potrace 1.14, written by Peter Selinger 2001-2017
</metadata>
<g transform="translate(0.000000,500.000000) scale(0.100000,-0.100000)"
fill="#000000" stroke="none">
<path d="M2455 2246 c-64 -29 -95 -85 -95 -171 0 -50 -2 -55 -44 -92 -24 -21
-111 -86 -192 -145 -126 -90 -157 -107 -199 -113 -116 -16 -173 -69 -147 -137
9 -26 8 -34 -10 -58 -11 -16 -21 -43 -22 -60 l-1 -30 -142 2 -142 3 -33 -32
-34 -33 -159 -1 c-220 0 -293 -9 -316 -38 -44 -54 -6 -142 62 -145 18 0 135 3
258 7 225 8 260 14 290 50 10 12 37 14 154 10 90 -4 157 -1 183 6 46 12 91 52
96 84 2 15 12 23 33 27 81 17 115 64 115 160 l0 66 148 107 c81 58 170 126
197 151 l50 44 66 -62 c36 -34 121 -103 190 -153 115 -83 124 -92 130 -129 4
-25 1 -52 -8 -77 -18 -45 -12 -100 14 -130 36 -41 80 -50 248 -55 176 -4 185
-7 185 -67 0 -21 9 -40 25 -55 23 -21 39 -25 143 -31 64 -4 149 -12 187 -18
39 -6 107 -11 153 -11 50 0 97 -6 119 -15 78 -33 143 -2 143 68 0 75 -72 117
-210 123 -47 2 -156 12 -242 21 l-157 17 -17 38 c-33 74 -111 115 -193 102
-49 -8 -213 5 -206 16 2 4 23 10 46 13 59 8 89 40 89 94 0 57 -29 87 -106 108
-33 9 -68 21 -79 26 -45 22 -269 188 -319 237 -52 51 -53 53 -58 120 -8 108
-46 159 -125 168 -21 2 -51 -2 -68 -10z"/>
</g>
</svg>
